<svg width="812" height="513" viewBox="0 0 812 513" fill="none" xmlns="http://www.w3.org/2000/svg">
<path d="M22 16.2812C22.8851 35.1595 23.5895 53.2602 24.1436 70.75L25.833 72.5566L26.3604 82.6143C26.4524 84.3699 26.8996 86.0891 27.6748 87.667L29.5 91.3809L26.5 97.9951H24.8994C28.1606 235.336 22.3269 338.117 22 496H785.5V413.495L785 410.495L782.5 406.995L783 404.495L782 401.995L784 399.495L781.5 395.995L783 392.995L784.5 391.495L785.5 389.995V276.995H780.5L776 270.495L780.5 264.495L785.5 251.161V96.9951L780 79.9951L778.5 66.4951L785.5 60.4951V16L22 16.2812Z" fill="#F9F4DE"/>
<path d="M535.047 117.622C535.386 117.324 535.713 117.02 536.028 116.711C537.074 115.685 538.037 114.565 538.302 113.909C538.585 113.329 538.773 112.713 538.875 112.093C538.907 111.721 538.933 111.231 538.987 110.575C539.039 109.932 539.096 109.203 539.157 108.461C539.561 103.437 539.967 98.16 542.518 92.2924C544.559 87.5866 546.324 84.7472 547.953 81.9966C549.042 80.1638 550.063 78.3769 551.196 76.0463C552.509 73.6978 552.983 70.9371 556.688 66.3703C557.135 65.887 557.646 65.4165 558.208 64.9941C561.597 62.439 566.034 61.5551 569.901 62.3523C575.042 63.6155 577.04 66.4725 579.255 68.4873C581.357 70.6239 583.151 72.5858 584.771 74.2567C586.447 75.993 587.901 77.4269 589.059 78.4552C593.542 82.5265 593.169 83.8793 599.455 89.749C601.212 91.4192 602.754 92.9248 604.188 94.3404C605.264 95.3918 606.245 96.4302 607.275 97.232C608.003 97.7937 608.773 98.2881 609.588 98.7157C610.775 99.3349 612.143 99.7867 613.542 100.3C614.515 100.65 615.519 101.009 616.572 101.381C620.957 102.943 631.04 106.247 640.016 109.065C640.1 109.092 640.184 109.118 640.267 109.144C645.701 110.87 650.76 112.309 653.507 114.006C654.281 114.476 655.032 115.053 655.65 115.783C657.642 118.09 658.672 121.37 658.292 124.438C657.299 129.548 653.541 132.347 651.544 134.736C650.318 136.053 649.286 137.028 648.456 137.735C648.106 138.032 647.858 138.1 647.758 138.008C647.758 138.008 647.757 138.008 647.757 138.008C647.632 137.893 647.74 137.536 648.128 137.1C649.968 134.935 653.002 131.778 655.65 127.659C656.399 126.413 656.866 125.3 657.037 124.261C657.488 121.081 656.979 118.72 655.208 116.128C653.784 114.121 650.849 112.731 646.458 111.183C644.279 110.417 642.223 109.762 640.267 109.144C640.184 109.118 640.1 109.092 640.016 109.065C631.492 106.373 624.553 104.383 613.271 101.16C613.055 101.098 612.838 101.035 612.62 100.972C611.374 100.605 610.19 100.285 609.079 99.8074C608.124 99.3967 607.251 98.9237 606.45 98.4099C605.08 97.5103 604.023 96.5553 602.94 95.7012C597.154 90.9466 591.895 87.7974 581.187 78.164C580.987 77.9798 580.788 77.7959 580.59 77.6124C575.569 72.908 571.253 69.2256 568.893 69.5125C566.617 69.5618 564.85 70.7594 563.907 72.2852C563.446 73.56 562.856 78.9174 561.468 86.251C561.331 86.9393 561.184 87.6472 561.026 88.3759C559.303 96.3511 556.731 104.921 553.757 113.058C553.508 113.742 553.258 114.427 552.959 115.212C552.659 115.989 552.277 116.98 551.718 118.079C551.056 119.364 550.283 120.576 549.421 121.697C547.839 123.719 546.751 124.584 545.712 125.593C538.92 131.953 532.775 137.505 528.928 141.535C527.866 142.645 526.761 143.8 525.613 144.996C523.818 146.872 521.914 148.82 520.131 150.775C518.359 152.651 516.77 154.913 516.72 155.354C516.39 156.78 516.621 158.443 517.519 159.847C518.133 161.462 524.957 163.989 530.022 165.971C530.059 165.986 530.097 166 530.134 166.015C538.15 169.12 547.183 172.168 556.489 175.162C557.862 175.619 559.245 175.98 560.962 176.76C561.996 177.242 562.99 177.815 563.928 178.469C564.686 178.996 565.334 179.553 565.907 180.056C566.483 180.564 567.017 181.053 567.553 181.54C572.693 186.219 577.787 190.924 582.584 195.562C584.268 197.19 586.035 198.896 587.858 200.655C591.723 204.212 596.177 209.337 599.93 210.232C602.234 210.642 604.712 210.05 606.596 208.657C609.916 205.808 611.424 199.023 613.175 194.482C614.513 190.63 615.703 187.238 616.665 184.543C619.37 176.974 620.819 172.951 622.326 168.129C622.747 166.833 623.085 165.473 623.761 163.908C624.15 163.034 624.627 162.141 625.225 161.239C625.991 160.093 626.913 159.078 627.871 157.95C627.926 157.885 627.98 157.823 628.036 157.757C632.708 152.33 639.399 145.228 645.584 139.698C648.735 136.883 648.544 138.001 645.881 141.3C641.985 146.124 638.34 149.673 636.69 152.487C634.65 155.956 633.297 158.158 631.133 160.598C630.296 161.556 629.239 162.57 628.439 163.491C627.971 164.049 627.492 164.683 627.026 165.43C626.998 165.473 626.971 165.516 626.944 165.561C626.32 166.586 625.862 167.95 625.479 169.122C623.851 174.239 623.886 177.617 622.558 181.186C621.3 184.581 620.477 185.141 617.147 195.733C616.067 198.9 615.267 202.845 612.764 208.388C612.047 209.818 611.085 211.333 609.616 212.52C606.552 215.017 602.649 215.943 599.189 215.497C590.23 212.903 587.741 208.05 583.772 205.109C578.85 200.734 575.086 197.368 571.96 194.59C569.665 192.55 566.603 189.666 563.125 186.367C562.61 185.879 562.09 185.382 561.586 184.917C561.094 184.463 560.647 184.069 560.221 183.761C559.61 183.317 558.949 182.92 558.247 182.584C557.351 182.147 555.946 181.725 554.562 181.283C548.465 179.36 542.096 177.471 536.306 176.005C533.82 175.376 530.892 174.62 527.686 173.792C525.149 173.131 522.462 172.463 519.533 171.584C516.676 170.569 513.201 170.043 509.566 166.063C506.737 162.747 505.343 158.178 505.809 153.819C506.792 147.869 509.522 145.427 511.249 142.85C513.121 140.386 514.81 138.298 516.259 136.417C517.347 135.011 518.309 133.735 519.111 132.622C526.209 122.771 527.7 124.105 535.047 117.622Z" fill="#EAE5C7"/>
<path d="M561.591 226.736C561.498 226.906 561.41 227.076 561.328 227.246C561.056 227.814 560.829 228.401 560.802 228.725C560.765 229.009 560.77 229.294 560.811 229.57C560.876 229.878 561.035 230.488 561.193 231.099C561.732 233.176 562.324 235.352 562.289 238.085C562.262 240.275 562.066 241.677 561.894 243.023C561.779 243.92 561.679 244.789 561.622 245.893C561.495 247.039 561.784 248.183 561.057 250.662C560.957 250.935 560.828 251.214 560.669 251.484C559.733 253.099 558.071 254.243 556.319 254.594C553.889 254.968 552.602 254.14 551.373 253.719C550.171 253.226 549.137 252.754 548.216 252.375C547.262 251.981 546.442 251.678 545.793 251.515C543.259 250.868 543.41 249.746 539.906 248.587C538.92 248.259 538.051 247.944 537.249 247.629C536.65 247.396 536.089 247.15 535.688 247.026C535.371 246.929 535.049 246.855 534.72 246.803C534.29 246.73 533.666 246.726 533.028 246.7C532.584 246.683 532.125 246.663 531.645 246.64C529.643 246.543 525.095 246.619 521.07 246.832C518.579 246.951 516.311 247.191 514.747 246.974C514.315 246.915 513.85 246.785 513.415 246.54C512.11 245.825 511.18 244.431 510.955 243.014C510.744 240.52 511.996 239.032 512.465 237.753C512.782 237.05 513.06 236.508 513.285 236.098C513.38 235.926 513.463 235.858 513.51 235.877C513.51 235.877 513.51 235.877 513.51 235.877C513.51 235.877 513.51 235.877 513.51 235.877C513.51 235.877 513.51 235.877 513.51 235.877C513.569 235.901 513.574 236.057 513.49 236.293C513.107 237.439 512.393 239.22 512.19 241.274C512.15 241.879 512.202 242.344 512.32 242.701C512.729 243.874 513.217 244.593 514.187 245.258C514.854 245.712 516.143 245.831 518.106 245.644C519.119 245.551 520.07 245.426 520.978 245.305C524.784 244.8 527.849 244.276 532.877 244.186C532.973 244.185 533.07 244.183 533.168 244.182C533.727 244.178 534.277 244.145 534.905 244.189C535.414 244.227 535.893 244.3 536.347 244.399C537.172 244.593 537.728 244.805 538.303 244.966C541.388 245.875 544.024 246.203 549.563 248.972C549.668 249.025 549.772 249.077 549.875 249.13C552.497 250.495 554.777 251.317 555.475 250.916C556.302 250.604 556.79 249.925 556.943 249.239C556.939 248.816 556.512 246.519 556.095 243.373C556.058 243.076 556.023 242.769 555.988 242.453C555.614 238.989 555.411 235.162 555.291 231.456C555.279 230.826 555.218 230.221 555.299 229.179C555.355 228.581 555.464 227.993 555.622 227.425C555.917 226.406 556.2 225.881 556.441 225.312C558.048 221.674 559.503 218.451 560.308 216.204C560.53 215.585 560.76 214.939 560.997 214.269C561.366 213.221 561.762 212.12 562.093 211.057C562.445 210.042 562.57 208.85 562.485 209.071C562.361 208.676 562.081 208.334 561.719 208.137C561.947 208.201 561.016 207.994 559.957 208.037C558.884 208.049 557.661 208.11 556.425 208.148C556.408 208.149 556.391 208.149 556.374 208.15C552.7 208.269 548.634 208.676 544.464 209.085C543.84 209.135 543.251 209.241 542.157 209.201C541.546 209.172 540.935 209.088 540.335 208.951C539.27 208.688 538.722 208.439 538.131 208.231C535.336 207.2 532.572 206.113 529.982 204.894C529.073 204.466 528.119 204.018 527.136 203.555C526.074 203.057 524.988 202.538 523.97 202.097C522.978 201.639 521.953 201.401 521.989 201.381C521.459 201.413 520.911 201.684 520.538 202.139C520.341 202.145 520.089 203.386 520.051 204.497C519.988 205.645 519.975 206.822 519.95 207.917C519.913 209.668 519.868 211.213 519.814 212.443C519.664 215.899 519.578 217.737 519.71 219.897C519.738 220.484 519.823 221.066 519.805 221.891C519.79 222.336 519.742 222.807 519.645 223.305C519.511 223.964 519.311 224.529 519.127 225.138C519.116 225.173 519.106 225.206 519.095 225.242C518.174 228.175 516.463 231.992 514.382 234.972C513.322 236.489 512.909 235.887 513.316 234.098C513.912 231.484 514.977 229.565 514.806 228.028C514.596 226.132 514.495 224.923 514.936 223.596C515.104 223.086 515.391 222.487 515.56 222.28C515.673 222.089 515.8 221.874 515.928 221.615C515.936 221.603 515.943 221.591 515.951 221.578C516.133 221.292 516.152 220.631 516.122 220.114C515.982 217.818 514.732 216.515 514.828 214.878C514.917 213.32 515.577 212.945 515.257 208.2C515.201 206.73 514.845 205.195 514.926 202.148C514.986 201.328 515.154 200.295 515.739 199.248C516.815 197.283 518.685 195.951 520.628 195.448C523.744 194.869 525.069 195.727 526.383 196.027C527.651 196.426 528.7 196.803 529.673 197.145C532.334 198.086 534.364 198.834 536.05 199.442C537.288 199.889 538.931 200.631 540.797 201.496C541.331 201.746 541.926 202.019 542.058 202.082C542.246 202.154 542.444 202.211 542.651 202.249C542.794 202.304 543.436 202.304 544.054 202.298C546.796 202.275 549.642 202.201 552.187 201.969C553.28 201.87 554.57 201.778 555.984 201.691C557.105 201.624 558.288 201.547 559.646 201.523C560.995 201.583 562.58 201.258 565.056 202.596C566.902 203.709 568.233 205.607 568.682 207.65C569.165 210.6 568.284 211.942 567.924 213.246C567.474 214.511 567.055 215.577 566.708 216.53C566.448 217.243 566.223 217.887 566.042 218.443C564.439 223.363 563.612 223.047 561.591 226.736Z" fill="#EAE5C7"/>
<path d="M183.204 480.923C200.39 486.489 218.012 488.806 235.744 488.514C242.585 488.396 249.388 487.888 256.267 486.984C286.94 483.066 317.133 470.239 340.595 449.813C363.967 429.644 381.413 402.564 389.938 372.968C394.271 358.034 396.379 342.517 396.254 327C396.139 311.757 393.871 296.585 389.478 282.016C388.855 279.951 388.188 277.888 387.479 275.844C378.189 248.937 361.568 224.616 339.937 206.214C324.154 192.744 305.695 182.397 285.982 176.082C277.332 173.305 268.47 171.299 259.483 170.081C252.801 169.175 246.013 168.705 239.289 168.678C238.351 168.674 237.448 168.737 236.783 168.854C236.117 168.971 235.743 169.129 235.744 169.29C235.745 169.452 236.122 169.607 236.784 169.73C237.447 169.852 238.341 169.933 239.272 169.967C245.994 170.206 252.754 170.865 259.387 171.937C266.791 173.132 274.06 174.835 281.204 177.049C282.474 176.888 284.157 176.983 287.095 177.805C288.594 178.224 290.738 178.961 292.269 179.644C293.643 180.255 294.638 180.806 295.578 181.332C296.559 181.883 297.487 182.412 298.724 182.995C300.823 183.986 302.737 185.074 304.729 186.254C305.454 186.684 306.188 187.126 306.942 187.581C313.271 190.847 319.385 194.545 325.214 198.634C327.509 200.153 329.572 201.617 331.275 202.928C332.802 204.104 334.137 205.259 335.434 206.442C336.283 207.146 337.123 207.86 337.956 208.582C343.331 213.24 348.393 218.264 353.088 223.606C356.849 227.688 360.631 232.139 364.997 238.333C366.875 241.006 368.665 243.686 370.311 246.316C372.74 250.195 374.849 253.963 376.497 257.366C377.602 259.645 378.765 262.021 379.869 264.438C381.349 267.674 382.706 270.96 383.683 274.03C383.992 275.001 384.274 275.937 384.534 276.84C384.79 277.728 385.026 278.585 385.246 279.411C385.95 282.059 386.494 284.374 387.047 286.467C388.081 290.389 388.748 293.848 389.256 296.895C389.865 300.556 390.254 303.667 390.704 306.356C390.772 306.765 390.851 307.234 390.937 307.763C391.386 310.557 392.075 315.027 392.203 321.512C392.238 323.412 392.198 325.225 392.122 327C392.106 327.377 392.089 327.751 392.07 328.124C391.911 331.23 391.676 334.171 391.518 337.398C391.494 337.877 391.494 338.379 391.492 338.836C391.49 339.416 391.485 339.923 391.427 340.218C391.26 341.088 391.032 342.45 390.753 343.952C390.549 345.051 390.32 346.211 390.087 347.273C388.95 355.474 387.159 363.564 384.722 371.477C383.607 375.096 382.358 378.675 380.977 382.206C380.416 384.069 379.793 385.954 379.056 387.92C378.088 390.496 376.667 393.75 374.608 397.859C373.095 400.873 371.233 404.35 368.908 408.296C364.621 415.628 359.284 422.575 355.602 426.77C354.827 427.661 354.037 428.548 353.18 429.485C349.899 433 345.839 437.471 337.133 444.814C328.857 451.713 321.18 456.738 315.258 460.208C312.237 461.978 309.659 463.353 307.673 464.359C304.268 466.088 300.023 468.069 295.66 469.834C288.854 472.621 281.756 474.789 277.711 475.815C276.271 476.187 274.738 476.557 273.101 476.921C268.543 477.924 262.982 479.002 255.274 479.879C247.162 480.755 242.125 480.932 236.865 481.062C236.484 481.069 236.111 481.079 235.744 481.091C234.049 481.145 232.489 481.241 230.889 481.318C228.137 481.447 225.224 481.535 221.352 481.094C220.449 480.99 219.488 480.851 218.48 480.695C216.631 480.409 214.644 480.065 212.602 479.789C211.891 479.693 211.255 479.636 210.634 479.578C209.95 479.514 209.28 479.447 208.531 479.316C205.733 478.827 203.03 478.254 200.637 477.691C197.555 476.968 194.994 476.267 193.395 475.862C190.548 475.141 187.492 474.135 184.438 473.017C182.109 472.166 179.771 471.248 177.511 470.367C171.046 467.867 162.403 463.752 154.101 458.535C150.955 456.561 148.26 454.977 144.854 452.813C142.743 451.465 140.367 449.893 137.517 447.786C135.904 446.591 134.646 445.443 133.494 444.364C132.434 443.371 131.467 442.439 130.402 441.568C129.464 440.8 128.776 440.416 128.122 440.05C127.395 439.641 126.709 439.252 125.796 438.35C125.311 437.869 124.769 437.234 124.135 436.473C123.884 436.172 123.617 435.85 123.334 435.51C123.325 435.551 123.306 435.578 123.29 435.596C123.171 435.72 122.174 434.866 121.211 434.011C120.826 433.67 120.445 433.328 120.125 433.054C118.944 432.049 116.925 429.923 115.453 428.237C114.828 427.526 114.226 426.914 113.529 426.193C112.911 425.554 112.216 424.826 111.379 423.858C110.901 423.306 110.511 422.901 110.189 422.565C109.956 422.322 109.758 422.114 109.589 421.91C109.442 421.734 109.368 421.556 109.285 421.357C109.225 421.214 109.16 421.058 109.061 420.882C108.824 420.463 108.468 419.964 108.191 419.634C108.063 419.483 107.952 419.369 107.843 419.256C107.716 419.125 107.589 418.994 107.433 418.799C106.72 417.905 106.112 416.971 105.493 415.996C104.813 414.923 104.121 413.8 103.259 412.605C102.988 412.229 102.685 411.838 102.393 411.459C102.087 411.061 101.793 410.673 101.562 410.331C100.623 408.939 99.907 407.528 99.2689 406.221C98.8446 405.352 98.454 404.529 98.0528 403.789C97.3181 402.43 97.0621 401.625 96.8735 401.034C96.7761 400.727 96.6981 400.477 96.5845 400.231C96.4644 400.015 96.3426 399.795 96.2235 399.58C96.1085 399.386 95.9901 399.185 95.8928 398.989C95.8854 398.974 95.8785 398.959 95.8712 398.945C95.2046 397.741 94.5525 396.555 93.921 395.368C92.5037 392.7 91.1834 390.019 90.0727 387.061C89.8341 386.425 89.6434 385.757 89.4553 385.076C89.2248 384.241 88.998 383.386 88.6891 382.544C87.9523 380.536 87.17 378.527 86.4452 376.524C85.3535 373.509 84.3988 370.521 83.9289 367.672C83.7741 366.733 83.6713 365.799 83.5824 364.877C83.5325 364.361 83.4856 363.842 83.4344 363.32C83.3667 363.446 83.2947 363.521 83.2277 363.59C83.0896 363.734 82.9708 363.858 82.954 364.376C82.9123 365.596 82.8343 367.012 82.5283 366.926C82.4452 366.903 82.3697 366.954 82.2944 367.009C82.1062 367.144 81.9104 367.286 81.5739 366.207C81.3463 365.484 80.8056 363.611 80.7457 362.361C80.7321 362.089 80.7728 361.915 80.8184 361.721C80.8402 361.629 80.8631 361.531 80.882 361.416C80.9344 361.1 80.9542 360.651 80.8437 359.799C80.8185 359.604 80.7902 359.391 80.7611 359.171C80.6437 358.291 80.5294 357.321 80.5932 356.939C80.6668 356.501 80.8304 356.569 81.02 356.648C81.2679 356.751 81.5577 356.871 81.7692 355.93C81.8113 355.744 81.7911 355.402 81.7771 355.144C81.7672 354.962 81.7605 354.823 81.7784 354.807C81.7992 354.788 81.8528 354.84 81.9207 354.905C82.163 355.137 82.5704 355.536 82.3807 353.666C82.331 353.16 82.256 352.583 82.1924 352.064C82.0984 351.299 82.0291 350.661 82.0832 350.57C82.1038 350.536 82.1271 350.511 82.1516 350.49C82.0974 349.884 82.0481 349.278 82.0037 348.67C81.883 347.896 81.8291 346.797 81.7929 345.421C81.7841 345.087 81.7761 344.735 81.7687 344.369C81.7253 343.155 81.7018 341.959 81.6963 340.757C81.6723 339.804 81.64 338.788 81.5916 337.711C81.4959 335.544 81.3256 333.678 81.1835 331.832C81.1242 331.054 81.0707 330.28 81.0346 329.493C80.9917 329.796 80.9505 330.068 80.9095 330.278C80.631 331.712 80.3022 332.277 79.9979 332.8C79.7965 333.147 79.6084 333.477 79.4724 334.03C79.2257 335.042 79.0042 334.935 78.8358 334.855C78.749 334.813 78.6777 334.782 78.6296 334.917C78.5911 335.025 78.5658 335.281 78.5408 335.546C78.5189 335.777 78.497 336.016 78.4655 336.168C78.0902 338.018 77.9157 337.464 77.6451 336.644C77.4975 336.192 77.3261 335.661 77.0825 335.412C76.8241 335.198 76.7415 335.266 76.6221 336.25C76.503 335.478 76.3886 334.709 76.2784 333.945C76.2954 333.646 76.3846 333.422 76.5333 333.108C76.7965 332.549 76.97 330.702 77.1426 329.255C77.2209 328.585 77.2953 328.001 77.3607 327.673C77.4163 327.395 77.4703 327.175 77.5223 327.003C77.7963 326.108 78.001 326.549 78.1809 326.942C78.2001 326.984 78.2191 327.025 78.2379 327.064C78.3348 327.266 78.4271 327.41 78.5243 327.269C78.5739 327.197 78.6064 327.308 78.6397 327.42C78.6654 327.507 78.6915 327.595 78.7261 327.602C78.8375 327.621 78.9547 327.432 79.0758 327.135C79.2277 326.764 79.3859 326.222 79.5419 325.704C79.7022 325.172 79.8601 324.666 79.9977 324.392C80.0396 324.308 80.0801 324.243 80.1193 324.181C80.1764 324.091 80.2313 324.004 80.2866 323.864C80.4125 323.546 80.5562 322.878 80.721 322.149C80.8054 321.775 80.8952 321.385 80.9897 321.018C81.1122 320.542 81.2447 320.382 81.3833 320.212C81.4813 320.093 81.5829 319.967 81.6889 319.727C81.8804 319.292 82.0731 318.39 82.2613 317.556C82.3431 317.193 82.4241 316.842 82.5014 316.547C82.5328 316.428 82.5623 316.372 82.5903 316.363C82.9294 315.001 83.279 313.708 83.6379 312.452C85.4549 306.171 87.3564 300.865 89.7944 292.897C90.2592 291.389 90.8567 289.804 91.5282 288.226C93.3749 283.073 95.4424 278.021 97.7197 273.058C97.85 271.94 98.1414 270.631 98.6257 269.122C99.5328 266.294 100.867 263.563 102.543 260.398C103.777 258.066 105.21 255.476 106.785 252.43C109.443 247.299 112.426 242.136 116.342 236.706C120.233 231.28 125.173 225.438 128.922 221.579C130.965 219.46 132.786 216.948 134.548 214.603C137.013 211.323 139.358 208.387 141.785 207.803C142.559 207.618 143.474 207.652 144.364 207.701C144.997 207.736 145.619 207.775 146.169 207.746C147.07 206.967 148.003 206.183 148.929 205.42C150.224 203.624 152.557 201.047 155.76 200.104C156.766 199.368 157.78 198.647 158.762 197.961C160.898 196.481 163.067 195.061 165.259 193.714C165.982 193.27 166.716 192.829 167.455 192.396C167.462 192.391 167.469 192.387 167.476 192.383C168.961 191.511 170.475 190.664 171.989 189.856C172.636 189.51 173.286 189.171 173.938 188.839C175.593 187.994 177.303 187.175 178.984 186.414C179.871 186.011 180.787 185.613 181.703 185.228C183.192 184.602 184.695 184.008 186.223 183.444C188.686 182.536 191.174 181.717 193.709 180.991C194.123 180.872 194.504 180.655 194.767 180.376C195.029 180.097 195.153 179.78 195.106 179.479C195.106 179.479 195.106 179.479 195.106 179.479C195.106 179.479 195.106 179.478 195.106 179.478C195.058 179.177 194.839 178.91 194.495 178.728C194.151 178.547 193.709 178.468 193.267 178.497C190.561 178.679 187.859 178.989 185.153 179.426C183.475 179.698 181.811 180.012 180.151 180.374C179.13 180.597 178.107 180.84 177.109 181.091C175.219 181.567 173.284 182.122 171.402 182.722C170.661 182.957 169.92 183.202 169.181 183.456C167.446 184.052 165.707 184.705 163.994 185.398C163.984 185.402 163.973 185.406 163.963 185.411C163.119 185.752 162.279 186.105 161.45 186.465C158.92 187.564 156.407 188.772 153.931 190.079C152.644 190.752 151.305 191.494 150.002 192.247C149.278 192.664 148.558 193.089 147.853 193.515C147.468 193.748 147.08 193.987 146.69 194.23C137.731 199.794 129.571 206.429 122.136 213.937C114.725 221.422 108.131 229.692 102.382 238.469C96.6203 247.268 91.6999 256.585 87.6189 266.238C79.5155 285.41 74.6965 305.921 73.2459 326.638C72.4027 338.6 73.038 350.649 75.0769 362.459C80.7655 396.063 99.723 426.711 125.481 448.644C132.709 454.841 140.686 460.54 148.882 465.399C157.169 470.312 165.688 474.441 174.7 477.91C177.438 478.963 180.272 479.971 183.204 480.923Z" fill="#EAE5C7"/>
<path d="M752 44.251V468H56V44.001L752 44.251Z" stroke="#EAE5C7" stroke-width="8"/>
</svg>
