<svg width="812" height="513" viewBox="0 0 812 513" fill="none" xmlns="http://www.w3.org/2000/svg">
<path d="M22 16.2812C22.8851 35.1595 23.5895 53.2602 24.1436 70.75L25.833 72.5566L26.3604 82.6143C26.4524 84.3699 26.8996 86.0891 27.6748 87.667L29.5 91.3809L26.5 97.9951H24.8994C28.1606 235.336 22.3269 338.117 22 496H785.5V413.495L785 410.495L782.5 406.995L783 404.495L782 401.995L784 399.495L781.5 395.995L783 392.995L784.5 391.495L785.5 389.995V276.995H780.5L776 270.495L780.5 264.495L785.5 251.161V96.9951L780 79.9951L778.5 66.4951L785.5 60.4951V16L22 16.2812Z" fill="#F9F4DE"/>
<path d="M752 44.251V468H56V44.001L752 44.251Z" stroke="#EAE5C7" stroke-width="8"/>
</svg>
